<?xml version="1.0" encoding="UTF-8"?>
<svg width="351px" height="155px" viewBox="0 0 351 155" version="1.1" xmlns="http://www.w3.org/2000/svg" xmlns:xlink="http://www.w3.org/1999/xlink">
    <!-- Generator: Sketch 60 (88103) - https://sketch.com -->
    <title>icon-mask</title>
    <desc>Created with Sketch.</desc>
    <defs>
        <polygon id="path-1" points="0.06 0 351 0 351 154.94 0.06 154.94"></polygon>
    </defs>
    <g id="Page-1" stroke="none" stroke-width="1" fill="none" fill-rule="evenodd">
        <g id="icon-mask">
            <g id="Group-4">
                <mask id="mask-2" fill="white">
                    <use xlink:href="#path-1"></use>
                </mask>
                <g id="Clip-2"></g>
                <path d="M258.73,73.75 C255.736,71.945 252.334,71.042 248.522,71.042 C240.692,71.042 235.197,74.879 232.041,82.551 C230.687,85.834 230.011,89.24 230.011,92.768 C230.011,100.031 232.531,105.817 237.575,110.125 C240.362,112.506 243.929,113.695 248.276,113.695 C256.721,113.695 262.562,110.023 265.803,102.678 C267.196,99.519 267.893,96.134 267.893,92.522 C267.893,83.701 264.838,77.443 258.73,73.75" id="Fill-1" fill="#FFFFFE" mask="url(#mask-2)"></path>
                <path d="M318.5,85 C314.358,85 311,81.642 311,77.5 C311,73.358 314.358,70 318.5,70 C322.642,70 326,73.358 326,77.5 C326,81.642 322.642,85 318.5,85 Z M281,121.751 C281,122.304 280.552,123 280,123 L270.283,123 C269.731,123 269,122.304 269,121.751 L269,112.825 C264,120.842 256.872,124.851 248.255,124.851 C238.66,124.851 231.238,121.267 225.848,114.098 C221.092,107.778 218.751,100.672 218.751,92.782 C218.751,86.631 219.957,81.074 222.335,76.111 C224.966,70.597 228.774,66.44 233.741,63.64 C238.113,61.18 242.831,59.949 247.883,59.949 C252.086,59.949 256.085,61.095 260.16,63.385 C264.236,65.676 267,68.646 269,72.293 L269,30.851 C269,30.299 269.731,30 270.283,30 L280,30 C280.552,30 281,30.299 281,30.851 L281,121.751 Z M209,121.751 C209,122.303 208.145,123 207.592,123 L197.875,123 C197.323,123 197,122.303 197,121.751 L197,85.846 C197,80.629 196.024,76.832 194.199,74.456 C192.118,71.701 188.348,70.321 183.297,70.321 C173.236,70.321 168,76.663 168,89.345 L168,121.751 C168,122.303 167.9,123 167.347,123 L157.694,123 C157.142,123 157,122.303 157,121.751 L157,62.604 C157,62.051 157.142,62 157.694,62 L167.347,62 C167.9,62 168,62.051 168,62.604 L168,70.321 C173,63.407 179.182,59.95 187.29,59.95 C201.511,59.95 209,68.666 209,86.101 L209,121.751 Z M145.931,90.554 L145.838,93.126 C145.819,93.665 145.377,94 144.838,94 L99.637,94 C99.637,100 101.313,104.654 104.667,108.472 C108.233,112.46 112.86,114.498 118.549,114.498 C125.721,114.498 132.703,109.84 136.319,103.728 C136.603,103.248 137.208,103.083 137.691,103.364 L145.163,107.717 C145.652,108.002 145.814,108.646 145.51,109.123 C138.83,119.606 129.398,124.85 117.212,124.85 C108.297,124.85 101.101,121.626 95.625,115.178 C90.276,108.9 87.601,100.481 87.601,89.918 C87.601,86.186 88.408,82.262 90.021,78.147 C92.992,70.555 97.981,65.273 104.986,62.303 C108.679,60.734 112.755,59.949 117.212,59.949 C130.032,59.949 138.65,65.337 143.066,76.111 C145.145,81.159 146.1,85.973 145.931,90.554 Z M85.407,63.239 L56.693,122.184 C56.147,123.308 54.546,123.26 53.997,122.137 L25.104,63.265 C24.779,62.602 25.262,62 26.002,62 L37.085,62 C37.475,62 37.829,62.029 37.993,62.383 L55.352,99.901 L72.529,62.435 C72.692,62.079 73.048,62 73.439,62 L84.508,62 C85.247,62 85.731,62.575 85.407,63.239 Z M349.33,70.62 L312.085,8.12 C309.511,3.133 304.37,0 298.76,0 L14.995,0 C6.714,0 0,6.716 0,15 L0,140 C0,148.284 6.714,155 14.995,155 L298.76,155 C304.37,155 309.511,151.867 312.085,146.88 L349.33,84.38 C351.557,80.064 351.557,74.936 349.33,70.62 L349.33,70.62 Z" id="Fill-3" fill="#FFFFFE" mask="url(#mask-2)"></path>
            </g>
            <path d="M118.04,70.066 C113.284,70.066 109.316,71.266 106.132,74.002 C102.948,76.738 100.952,81 100.146,85 L134.342,85 C133.705,81 131.985,77.046 129.184,74.288 C126.211,71.361 122.497,70.066 118.04,70.066" id="Fill-5" fill="#FFFFFE"></path>
        </g>
    </g>
</svg>