<?xml version="1.0" encoding="UTF-8"?>
<svg width="300px" height="299px" viewBox="0 0 300 299" version="1.1" xmlns="http://www.w3.org/2000/svg" xmlns:xlink="http://www.w3.org/1999/xlink">
    <!-- Generator: Sketch 60 (88103) - https://sketch.com -->
    <title>icon</title>
    <desc>Created with Sketch.</desc>
    <g id="Page-1" stroke="none" stroke-width="1" fill="none" fill-rule="evenodd">
        <g id="icon" transform="translate(0.691007, 0.000000)" fill="#FB48C4">
            <path d="M149.110266,0 L173.108424,29.1769843 L206.351868,11.2303558 L217.357727,47.3700721 L254.938541,43.5112645 L251.276558,81.1117684 L287.473405,91.9282502 L269.701084,125.265206 L299.003322,149.110266 L269.826338,173.108424 L287.772966,206.351868 L251.63325,217.357727 L255.492058,254.938541 L217.891554,251.276558 L207.075072,287.473405 L173.738116,269.701084 L149.893056,299.003322 L125.894898,269.826338 L92.6514544,287.772966 L81.6455956,251.63325 L44.064781,255.492058 L47.726764,217.891554 L11.5299168,207.075072 L29.3022378,173.738116 L0,149.893056 L29.1769843,125.894898 L11.2303558,92.6514544 L47.3700721,81.6455956 L43.5112645,44.064781 L81.1117684,47.726764 L91.9282502,11.5299168 L125.265206,29.3022378 L149.110266,0 Z M228.830153,105.5 L67.9491415,105.5 C63.2542156,105.5 59.4477028,109.312955 59.4477028,114.016129 L59.4477028,184.983871 C59.4477028,189.687045 63.2542156,193.5 67.9491415,193.5 L228.830153,193.5 C232.010751,193.5 234.925449,191.721265 236.384783,188.889935 L257.500894,153.406065 C258.763495,150.95569 258.763495,148.04431 257.500894,145.593935 L236.384783,110.110065 C234.925449,107.278735 232.010751,105.5 228.830153,105.5 Z" id="Combined-Shape" fill-rule="nonzero"></path>
            <g id="Vend-Logo-White" transform="translate(73.308993, 122.000000)">
                <path d="M166.712784,31.7580645 C164.36447,31.7580645 162.460647,29.8515871 162.460647,27.5 C162.460647,25.1484129 164.36447,23.2419355 166.712784,23.2419355 C169.061097,23.2419355 170.964921,25.1484129 170.964921,27.5 C170.964921,29.8515871 169.061097,31.7580645 166.712784,31.7580645 Z" id="Path"></path>
                <path d="M144.885148,0.532258065 C145.198106,0.532258065 145.4521,0.702012903 145.4521,1.01540645 L145.4521,52.6231484 C145.4521,52.9371097 145.198106,53.3322581 144.885148,53.3322581 L139.37608,53.3322581 C139.063123,53.3322581 138.648681,52.9371097 138.648681,52.6231484 L138.648681,47.5554839 C135.813923,52.107071 131.772693,54.3831484 126.887271,54.3831484 C121.447371,54.3831484 117.239456,52.3483613 114.183587,48.2782194 C111.487166,44.6900903 110.159932,40.6557161 110.159932,36.1762323 C110.159932,32.6840516 110.843675,29.5291097 112.191886,26.7114065 C113.683536,23.5808774 115.842487,21.2207742 118.658536,19.6310968 C121.137248,18.2344516 123.812126,17.5355613 126.676365,17.5355613 C129.059262,17.5355613 131.326502,18.1861935 133.636829,19.4863226 C135.947724,20.7870194 137.514778,22.4732129 138.648681,24.5437677 L138.648681,1.01540645 C138.648681,0.702012903 139.063123,0.532258065 139.37608,0.532258065 L144.885148,0.532258065 Z M127.038647,23.8335226 C122.599416,23.8335226 119.484017,26.0119484 117.694718,30.3676645 C116.927066,32.2315613 116.543807,34.1652903 116.543807,36.1682839 C116.543807,40.2917935 117.972524,43.5767484 120.832228,46.0225806 C122.412322,47.3743742 124.434638,48.0494194 126.899177,48.0494194 C131.687083,48.0494194 134.998647,45.964671 136.836137,41.7946065 C137.625901,40.0011097 138.021066,38.0793032 138.021066,36.0286194 C138.021066,31.0205677 136.289029,27.4676387 132.826089,25.3709677 C131.128636,24.3461935 129.199866,23.8335226 127.038647,23.8335226 Z" id="Combined-Shape"></path>
                <path d="M104.631587,52.6231484 C104.631587,52.9365419 104.146844,53.3322581 103.833319,53.3322581 L98.324251,53.3322581 C98.0112937,53.3322581 97.8281684,52.9365419 97.8281684,52.6231484 L97.8281684,32.2383742 C97.8281684,29.2764645 97.2748236,27.1207484 96.240137,25.7717935 C95.0603108,24.2076645 92.9229034,23.4241806 90.059231,23.4241806 C84.3551313,23.4241806 81.3865729,27.0248 81.3865729,34.2249032 L81.3865729,52.6231484 C81.3865729,52.9365419 81.3298778,53.3322581 81.0163536,53.3322581 L75.5435701,53.3322581 C75.2306128,53.3322581 75.1501057,52.9365419 75.1501057,52.6231484 L75.1501057,19.0429161 C75.1501057,18.7289548 75.2306128,18.7 75.5435701,18.7 L81.0163536,18.7 C81.3298778,18.7 81.3865729,18.7289548 81.3865729,19.0429161 L81.3865729,23.4241806 C84.2213308,19.4988129 87.7262253,17.536129 92.3230687,17.536129 C100.385687,17.536129 104.631587,22.4845677 104.631587,32.3831484 L104.631587,52.6231484 Z" id="Path"></path>
                <path d="M52.5922367,17.5355613 C59.8605558,17.5355613 64.7465444,20.5945548 67.2502026,26.7114065 C68.4288949,29.5773677 68.9703336,32.3104774 68.8745188,34.9113032 L68.8217923,36.3715355 C68.8110202,36.6775484 68.5604276,36.8677419 68.2548407,36.8677419 L42.628063,36.8677419 C42.628063,40.2741935 43.5782738,42.9164645 45.4798293,45.0841032 C47.5015786,47.3482581 50.1248635,48.5053161 53.350251,48.5053161 C57.4164276,48.5053161 61.3748835,45.8607742 63.4249803,42.3907355 C63.5859946,42.1182194 63.9290003,42.0245419 64.2028379,42.1840774 L68.4391,44.6554581 C68.7163393,44.8172645 68.8081855,45.1828903 68.6358322,45.4537032 C64.8485957,51.4053419 59.5011085,54.3825806 52.5922367,54.3825806 C47.5378635,54.3825806 43.45808,52.5521806 40.3534533,48.8913806 C37.3208293,45.3270968 35.8042339,40.5472774 35.8042339,34.5502194 C35.8042339,32.4314065 36.2617638,30.2035871 37.1762567,27.867329 C38.8606698,23.5570323 41.6891912,20.5582194 45.6606869,18.8720258 C47.754439,17.9812387 50.0653336,17.5355613 52.5922367,17.5355613 Z M53.0809836,24.5 C50.4384523,24.5 48.23375,25.1428284 46.4646542,26.6084773 C44.6955584,28.0741262 43.5865398,30.3572385 43.1387097,32.5 L62.1387097,32.5 C61.7847794,30.3572385 60.8291121,28.2391188 59.2728189,26.7616847 C57.6209591,25.193719 55.5573844,24.5 53.0809836,24.5 Z" id="Combined-Shape"></path>
                <path d="M34.5603422,18.4034323 L18.2808949,51.8689806 C17.9713393,52.5071226 17.0636498,52.479871 16.7523934,51.8422968 L0.371461814,18.4181935 C0.187202555,18.0417806 0.461040162,17.7 0.880584321,17.7 L7.16410854,17.7 C7.38521965,17.7 7.5859205,17.7164645 7.67890056,17.9174452 L17.5206128,39.2179871 L27.2591399,17.9469677 C27.351553,17.7448516 27.5533877,17.7 27.7750658,17.7 L34.0506527,17.7 C34.4696299,17.7 34.7440345,18.0264516 34.5603422,18.4034323 Z" id="Path"></path>
            </g>
        </g>
    </g>
</svg>